<svg width="170" height="170" viewBox="0 0 170 170" fill="none" xmlns="http://www.w3.org/2000/svg">
<path fill-rule="evenodd" clip-rule="evenodd" d="M53.525 9.32969C54.0233 7.62639 55.637 6.45853 57.5092 6.44629L107.389 6.12017C109.261 6.10793 110.958 7.25429 111.577 8.95042L127.206 51.7159C127.989 53.8582 126.813 56.1512 124.58 56.8376C122.348 57.524 119.903 56.3437 119.12 54.2015L104.533 14.2868L60.9474 14.5718L49.2208 54.6588C48.5915 56.8102 46.2322 58.0217 43.9513 57.3647C41.6704 56.7077 40.3316 54.4309 40.961 52.2795L53.525 9.32969ZM45.3251 95.7447C47.5579 95.0582 50.0027 96.2382 50.7858 98.3804L65.3759 138.295L108.962 138.01L120.685 97.9237C121.314 95.7722 123.673 94.5606 125.954 95.2174C128.235 95.8743 129.574 98.1509 128.945 100.302L116.384 143.252C115.886 144.956 114.273 146.124 112.4 146.136L62.5208 146.462C60.6486 146.474 58.952 145.328 58.3321 143.632L42.7 100.867C41.917 98.7244 43.0923 96.4312 45.3251 95.7447Z" fill="#070606"/>
<path fill-rule="evenodd" clip-rule="evenodd" d="M83.564 37.8226C76.575 37.8621 69.7623 39.539 63.7567 42.6919C57.7516 45.8445 52.7525 50.3678 49.2116 55.8338L49.2082 55.8391C45.3101 61.835 43.1878 68.9391 43.4623 76.5463L43.4626 76.5527C43.7144 83.8665 46.2222 91.0241 50.7 97.1735L50.7038 97.1788C54.6376 102.599 59.9609 107.059 66.1909 110.136C72.4214 113.214 79.352 114.806 86.3408 114.76L86.3453 114.759C93.3343 114.72 100.147 113.043 106.153 109.89C112.158 106.738 117.157 102.214 120.698 96.7482L120.701 96.7429C124.599 90.7471 126.722 83.643 126.447 76.0358L130.672 76.0098L126.447 76.0294C126.195 68.7156 123.687 61.5579 119.209 55.4086L119.205 55.4033C115.272 49.9832 109.948 45.5234 103.718 42.4461C97.4879 39.3685 90.5573 37.776 83.5685 37.8225L83.564 37.8226ZM134.9 75.9902C135.232 85.2313 132.648 93.8704 127.925 101.138C123.637 107.757 117.601 113.208 110.384 116.997C103.169 120.784 95.0015 122.792 86.6347 122.839C78.2681 122.895 69.9591 120.989 62.4739 117.291C54.9885 113.594 48.5625 108.221 43.7988 101.658C38.3721 94.2045 35.3166 85.5046 35.0092 76.5951C34.6762 67.3517 37.2613 58.7104 41.9864 51.4413C46.2744 44.8231 52.3097 39.3733 59.525 35.5854C66.74 31.7976 74.9078 29.7905 83.2746 29.7429C91.6412 29.6876 99.9502 31.5933 107.435 35.2907C114.921 38.9882 121.347 44.3614 126.111 50.9239C131.538 58.3785 134.593 67.0796 134.9 75.9902ZM83.2746 29.7429C83.2754 29.7429 83.2761 29.7429 83.2769 29.7429L83.4204 33.7827L83.2724 29.7429C83.2732 29.7429 83.2739 29.7429 83.2746 29.7429ZM45.598 53.6389L45.5981 53.639L45.598 53.6389C35.0091 76.5929 35.0091 76.594 35.0092 76.5951L35.0091 76.5919L39.2345 76.5723C35.0092 76.5961 35.0093 76.5972 35.0093 76.5983M86.6347 122.839C86.6339 122.839 86.6332 122.839 86.6324 122.839L86.4889 118.799L86.6369 122.839C86.6362 122.839 86.6354 122.839 86.6347 122.839Z" fill="#070606"/>
<path fill-rule="evenodd" clip-rule="evenodd" d="M83.7579 48.9124C86.1363 48.896 88.1293 50.7099 88.2094 52.9639L88.9694 74.3642L102.426 86.2858C104.187 87.8457 104.316 90.4293 102.715 92.0565C101.114 93.6837 98.3888 93.7383 96.6281 92.1784L81.8252 79.064C80.9644 78.3014 80.4567 77.2495 80.4176 76.1475L79.5964 53.0235C79.5163 50.7695 81.3795 48.9289 83.7579 48.9124Z" fill="#070606"/>
<path fill-rule="evenodd" clip-rule="evenodd" d="M85 27.6667C111.694 27.6667 133.333 49.3055 133.333 76C133.333 102.695 111.694 124.333 85 124.333C58.3055 124.333 36.6666 102.695 36.6666 76C36.6666 49.3055 58.3055 27.6667 85 27.6667ZM85 37.3334C74.7449 37.3334 64.9099 41.4072 57.6585 48.6586C50.4071 55.91 46.3333 65.745 46.3333 76C46.3333 86.2551 50.4071 96.0901 57.6585 103.341C64.9099 110.593 74.7449 114.667 85 114.667C95.255 114.667 105.09 110.593 112.341 103.341C119.593 96.0901 123.667 86.2551 123.667 76C123.667 65.745 119.593 55.91 112.341 48.6586C105.09 41.4072 95.255 37.3334 85 37.3334ZM85 80.8334C91.1238 80.8334 96.7305 83.1195 100.989 86.875C101.95 87.7236 102.535 88.9194 102.615 90.1993C102.694 91.4791 102.263 92.7383 101.414 93.6997C100.565 94.6611 99.3696 95.246 98.0897 95.3258C96.8098 95.4056 95.5507 94.9736 94.5893 94.125C91.9409 91.7893 88.5312 90.5004 85 90.5C81.3218 90.5 77.9675 91.863 75.4106 94.125C74.9346 94.5449 74.3805 94.8669 73.78 95.0726C73.1795 95.2783 72.5444 95.3638 71.9109 95.3241C71.2774 95.2844 70.6579 95.1202 70.0878 94.8411C69.5178 94.562 69.0082 94.1733 68.5884 93.6973C68.1685 93.2212 67.8465 92.6671 67.6408 92.0667C67.435 91.4662 67.3496 90.8311 67.3893 90.1976C67.429 89.564 67.5931 88.9446 67.8723 88.3745C68.1514 87.8044 68.5401 87.2949 69.0161 86.875C73.4306 82.9819 79.1141 80.8336 85 80.8334ZM68.0833 56.6667C70.0061 56.6667 71.8502 57.4305 73.2098 58.7902C74.5695 60.1498 75.3333 61.9939 75.3333 63.9167C75.3333 65.8395 74.5695 67.6836 73.2098 69.0432C71.8502 70.4028 70.0061 71.1667 68.0833 71.1667C66.1605 71.1667 64.3164 70.4028 62.9568 69.0432C61.5971 67.6836 60.8333 65.8395 60.8333 63.9167C60.8333 61.9939 61.5971 60.1498 62.9568 58.7902C64.3164 57.4305 66.1605 56.6667 68.0833 56.6667ZM101.917 56.6667C103.839 56.6667 105.684 57.4305 107.043 58.7902C108.403 60.1498 109.167 61.9939 109.167 63.9167C109.167 65.8395 108.403 67.6836 107.043 69.0432C105.684 70.4028 103.839 71.1667 101.917 71.1667C99.9938 71.1667 98.1497 70.4028 96.7901 69.0432C95.4305 67.6836 94.6666 65.8395 94.6666 63.9167C94.6666 61.9939 95.4305 60.1498 96.7901 58.7902C98.1497 57.4305 99.9938 56.6667 101.917 56.6667Z" fill="#070606"/>
<path d="M37.7 153.6V162H36.104L31.916 156.9V162H29.996V153.6H31.604L35.78 158.7V153.6H37.7ZM42.6274 162.096C41.9474 162.096 41.3354 161.956 40.7914 161.676C40.2554 161.388 39.8354 160.992 39.5314 160.488C39.2274 159.984 39.0754 159.412 39.0754 158.772C39.0754 158.132 39.2274 157.56 39.5314 157.056C39.8354 156.552 40.2554 156.16 40.7914 155.88C41.3354 155.592 41.9474 155.448 42.6274 155.448C43.3074 155.448 43.9154 155.592 44.4514 155.88C44.9874 156.16 45.4074 156.552 45.7114 157.056C46.0154 157.56 46.1674 158.132 46.1674 158.772C46.1674 159.412 46.0154 159.984 45.7114 160.488C45.4074 160.992 44.9874 161.388 44.4514 161.676C43.9154 161.956 43.3074 162.096 42.6274 162.096ZM42.6274 160.56C43.1074 160.56 43.4994 160.4 43.8034 160.08C44.1154 159.752 44.2714 159.316 44.2714 158.772C44.2714 158.228 44.1154 157.796 43.8034 157.476C43.4994 157.148 43.1074 156.984 42.6274 156.984C42.1474 156.984 41.7514 157.148 41.4394 157.476C41.1274 157.796 40.9714 158.228 40.9714 158.772C40.9714 159.316 41.1274 159.752 41.4394 160.08C41.7514 160.4 42.1474 160.56 42.6274 160.56ZM58.5931 162L58.5811 156.96L56.1091 161.112H55.2331L52.7731 157.068V162H50.9491V153.6H52.5571L55.7011 158.82L58.7971 153.6H60.3931L60.4171 162H58.5931ZM65.3501 162.096C64.6701 162.096 64.0581 161.956 63.5141 161.676C62.9781 161.388 62.5581 160.992 62.2541 160.488C61.9501 159.984 61.7981 159.412 61.7981 158.772C61.7981 158.132 61.9501 157.56 62.2541 157.056C62.5581 156.552 62.9781 156.16 63.5141 155.88C64.0581 155.592 64.6701 155.448 65.3501 155.448C66.0301 155.448 66.6381 155.592 67.1741 155.88C67.7101 156.16 68.1301 156.552 68.4341 157.056C68.7381 157.56 68.8901 158.132 68.8901 158.772C68.8901 159.412 68.7381 159.984 68.4341 160.488C68.1301 160.992 67.7101 161.388 67.1741 161.676C66.6381 161.956 66.0301 162.096 65.3501 162.096ZM65.3501 160.56C65.8301 160.56 66.2221 160.4 66.5261 160.08C66.8381 159.752 66.9941 159.316 66.9941 158.772C66.9941 158.228 66.8381 157.796 66.5261 157.476C66.2221 157.148 65.8301 156.984 65.3501 156.984C64.8701 156.984 64.4741 157.148 64.1621 157.476C63.8501 157.796 63.6941 158.228 63.6941 158.772C63.6941 159.316 63.8501 159.752 64.1621 160.08C64.4741 160.4 64.8701 160.56 65.3501 160.56ZM71.9293 156.396C72.1533 156.084 72.4533 155.848 72.8293 155.688C73.2133 155.528 73.6533 155.448 74.1493 155.448V157.176C73.9413 157.16 73.8013 157.152 73.7293 157.152C73.1933 157.152 72.7733 157.304 72.4693 157.608C72.1653 157.904 72.0133 158.352 72.0133 158.952V162H70.1413V155.544H71.9293V156.396ZM81.5278 158.796C81.5278 158.82 81.5158 158.988 81.4918 159.3H76.6078C76.6958 159.7 76.9038 160.016 77.2318 160.248C77.5598 160.48 77.9678 160.596 78.4558 160.596C78.7918 160.596 79.0878 160.548 79.3438 160.452C79.6078 160.348 79.8518 160.188 80.0758 159.972L81.0718 161.052C80.4638 161.748 79.5758 162.096 78.4078 162.096C77.6798 162.096 77.0358 161.956 76.4758 161.676C75.9158 161.388 75.4838 160.992 75.1798 160.488C74.8758 159.984 74.7238 159.412 74.7238 158.772C74.7238 158.14 74.8718 157.572 75.1678 157.068C75.4718 156.556 75.8838 156.16 76.4038 155.88C76.9318 155.592 77.5198 155.448 78.1678 155.448C78.7998 155.448 79.3718 155.584 79.8838 155.856C80.3958 156.128 80.7958 156.52 81.0838 157.032C81.3798 157.536 81.5278 158.124 81.5278 158.796ZM78.1798 156.864C77.7558 156.864 77.3998 156.984 77.1118 157.224C76.8238 157.464 76.6478 157.792 76.5838 158.208H79.7638C79.6998 157.8 79.5238 157.476 79.2358 157.236C78.9478 156.988 78.5958 156.864 78.1798 156.864ZM99.0006 153.6L96.2526 162H94.1646L92.3166 156.312L90.4086 162H88.3326L85.5726 153.6H87.5886L89.4846 159.504L91.4646 153.6H93.2646L95.1846 159.552L97.1406 153.6H99.0006ZM102.077 155.448C103.077 155.448 103.845 155.688 104.381 156.168C104.917 156.64 105.185 157.356 105.185 158.316V162H103.433V161.196C103.081 161.796 102.425 162.096 101.465 162.096C100.969 162.096 100.537 162.012 100.169 161.844C99.8094 161.676 99.5334 161.444 99.3414 161.148C99.1494 160.852 99.0534 160.516 99.0534 160.14C99.0534 159.54 99.2774 159.068 99.7254 158.724C100.181 158.38 100.881 158.208 101.825 158.208H103.313C103.313 157.8 103.189 157.488 102.941 157.272C102.693 157.048 102.321 156.936 101.825 156.936C101.481 156.936 101.141 156.992 100.805 157.104C100.477 157.208 100.197 157.352 99.9654 157.536L99.2934 156.228C99.6454 155.98 100.065 155.788 100.553 155.652C101.049 155.516 101.557 155.448 102.077 155.448ZM101.933 160.836C102.253 160.836 102.537 160.764 102.785 160.62C103.033 160.468 103.209 160.248 103.313 159.96V159.3H102.029C101.261 159.3 100.877 159.552 100.877 160.056C100.877 160.296 100.969 160.488 101.153 160.632C101.345 160.768 101.605 160.836 101.933 160.836ZM111.044 161.688C110.86 161.824 110.632 161.928 110.36 162C110.096 162.064 109.816 162.096 109.52 162.096C108.752 162.096 108.156 161.9 107.732 161.508C107.316 161.116 107.108 160.54 107.108 159.78V157.128H106.112V155.688H107.108V154.116H108.98V155.688H110.588V157.128H108.98V159.756C108.98 160.028 109.048 160.24 109.184 160.392C109.328 160.536 109.528 160.608 109.784 160.608C110.08 160.608 110.332 160.528 110.54 160.368L111.044 161.688ZM115.015 162.096C114.327 162.096 113.707 161.956 113.155 161.676C112.611 161.388 112.183 160.992 111.871 160.488C111.567 159.984 111.415 159.412 111.415 158.772C111.415 158.132 111.567 157.56 111.871 157.056C112.183 156.552 112.611 156.16 113.155 155.88C113.707 155.592 114.327 155.448 115.015 155.448C115.695 155.448 116.287 155.592 116.791 155.88C117.303 156.16 117.675 156.564 117.907 157.092L116.455 157.872C116.119 157.28 115.635 156.984 115.003 156.984C114.515 156.984 114.111 157.144 113.791 157.464C113.471 157.784 113.311 158.22 113.311 158.772C113.311 159.324 113.471 159.76 113.791 160.08C114.111 160.4 114.515 160.56 115.003 160.56C115.643 160.56 116.127 160.264 116.455 159.672L117.907 160.464C117.675 160.976 117.303 161.376 116.791 161.664C116.287 161.952 115.695 162.096 115.015 162.096ZM122.862 155.448C123.662 155.448 124.306 155.688 124.794 156.168C125.29 156.648 125.538 157.36 125.538 158.304V162H123.666V158.592C123.666 158.08 123.554 157.7 123.33 157.452C123.106 157.196 122.782 157.068 122.358 157.068C121.886 157.068 121.51 157.216 121.23 157.512C120.95 157.8 120.81 158.232 120.81 158.808V162H118.938V153.096H120.81V156.216C121.058 155.968 121.358 155.78 121.71 155.652C122.062 155.516 122.446 155.448 122.862 155.448ZM133.629 158.796C133.629 158.82 133.617 158.988 133.593 159.3H128.709C128.797 159.7 129.005 160.016 129.333 160.248C129.661 160.48 130.069 160.596 130.557 160.596C130.893 160.596 131.189 160.548 131.445 160.452C131.709 160.348 131.953 160.188 132.177 159.972L133.173 161.052C132.565 161.748 131.677 162.096 130.509 162.096C129.781 162.096 129.137 161.956 128.577 161.676C128.017 161.388 127.585 160.992 127.281 160.488C126.977 159.984 126.825 159.412 126.825 158.772C126.825 158.14 126.973 157.572 127.269 157.068C127.573 156.556 127.985 156.16 128.505 155.88C129.033 155.592 129.621 155.448 130.269 155.448C130.901 155.448 131.473 155.584 131.985 155.856C132.497 156.128 132.897 156.52 133.185 157.032C133.481 157.536 133.629 158.124 133.629 158.796ZM130.281 156.864C129.857 156.864 129.501 156.984 129.213 157.224C128.925 157.464 128.749 157.792 128.685 158.208H131.865C131.801 157.8 131.625 157.476 131.337 157.236C131.049 156.988 130.697 156.864 130.281 156.864ZM137.048 162.096C136.512 162.096 135.988 162.032 135.476 161.904C134.964 161.768 134.556 161.6 134.252 161.4L134.876 160.056C135.164 160.24 135.512 160.392 135.92 160.512C136.328 160.624 136.728 160.68 137.12 160.68C137.912 160.68 138.308 160.484 138.308 160.092C138.308 159.908 138.2 159.776 137.984 159.696C137.768 159.616 137.436 159.548 136.988 159.492C136.46 159.412 136.024 159.32 135.68 159.216C135.336 159.112 135.036 158.928 134.78 158.664C134.532 158.4 134.408 158.024 134.408 157.536C134.408 157.128 134.524 156.768 134.756 156.456C134.996 156.136 135.34 155.888 135.788 155.712C136.244 155.536 136.78 155.448 137.396 155.448C137.852 155.448 138.304 155.5 138.752 155.604C139.208 155.7 139.584 155.836 139.88 156.012L139.256 157.344C138.688 157.024 138.068 156.864 137.396 156.864C136.996 156.864 136.696 156.92 136.496 157.032C136.296 157.144 136.196 157.288 136.196 157.464C136.196 157.664 136.304 157.804 136.52 157.884C136.736 157.964 137.08 158.04 137.552 158.112C138.08 158.2 138.512 158.296 138.848 158.4C139.184 158.496 139.476 158.676 139.724 158.94C139.972 159.204 140.096 159.572 140.096 160.044C140.096 160.444 139.976 160.8 139.736 161.112C139.496 161.424 139.144 161.668 138.68 161.844C138.224 162.012 137.68 162.096 137.048 162.096Z" fill="#070606"/>
</svg>
