<svg width="250" height="250" viewBox="0 0 250 250" fill="none" xmlns="http://www.w3.org/2000/svg">
<g clip-path="url(#clip0_1630_8342)">
<rect width="250" height="250" fill="white"/>
<path fill-rule="evenodd" clip-rule="evenodd" d="M178.722 14.8695C174.897 18.2275 172.458 23.7485 173.328 27.0755C173.738 28.6455 173.485 28.9465 172.179 28.4455C164.719 25.5825 154.503 25.5845 148.961 28.4505C147.292 29.3135 144.32 29.6075 140.448 29.2905C135.631 28.8965 133.888 29.1905 131.28 30.8345C123.167 35.9495 119.363 46.4105 122.501 54.9755C125.383 62.8445 125.383 62.8425 122.864 63.9475C120.788 64.8575 120.916 64.9185 123.916 64.4485C128.58 63.7185 133.417 59.8015 138.77 52.4195L143.267 46.2195L146.663 49.9785C150.78 54.5365 156.981 57.5935 163.995 58.5245L169.225 59.2175L168.722 62.9655C168.446 65.0275 167.041 68.4485 165.6 70.5685C164.159 72.6895 163.41 74.5675 163.935 74.7425C165.864 75.3855 169.005 72.7775 171.567 68.4065C175.397 61.8705 181 60.9365 181 66.8345C181 70.0575 178.537 72.5925 172.65 75.4305L168.5 77.4305L168.198 83.8475C168.032 87.3775 168.422 91.5335 169.064 93.0845C170.167 95.7485 169.774 96.5425 161.966 107.418C157.42 113.75 153.61 118.931 153.5 118.931C151.173 118.931 146.594 116.046 145.47 113.872C142.954 109.007 143.571 105.695 147.415 103.431C152.883 100.21 163.588 85.1845 161.735 83.3315C161.381 82.9785 159.183 84.0935 156.849 85.8105C149.948 90.8855 143.526 89.4195 137.383 81.3655C134.934 78.1545 134.449 76.4235 133.925 69.0305L133.317 60.4305L133.158 68.6335C132.993 77.2015 133.823 80.2525 137.778 85.6065C140.791 89.6855 144.597 92.1635 149 92.9135C151.762 93.3835 152.435 93.9215 152.193 95.4695C151.74 98.3665 148.212 100.928 144.639 100.953C142.913 100.965 139.649 101.815 137.387 102.843L133.274 104.71L134.622 97.6385C135.363 93.7485 135.819 90.4165 135.635 90.2325C135.274 89.8705 130.992 103.832 130.997 105.355C130.999 105.864 127.868 109.51 124.04 113.458C117.17 120.543 117.093 120.682 118.075 124.241C118.982 127.525 118.562 128.991 113.375 140.639C110.242 147.675 107.335 153.824 106.915 154.305C105.674 155.726 100.146 153.257 97.482 150.092L95.024 147.17L84.262 147.667C73.784 148.15 73.474 148.103 72.5 145.876C71.95 144.617 70.276 142.687 68.779 141.586C65.257 138.994 61.489 140.43 60.546 144.722C59.916 147.59 59.758 147.653 51.702 148.28C47.191 148.632 39.112 148.922 33.75 148.925C28.388 148.928 24 149.185 24 149.495C24 149.806 28.693 155.917 34.429 163.077C46.456 178.087 45.123 173.208 46.958 208.931C48.468 238.336 48.71 235.912 44.25 236.031C42.188 236.086 39.375 236.491 38 236.931C34.539 238.04 51.064 238.047 88 236.954C104.775 236.458 141.225 235.511 169 234.85C196.775 234.19 219.928 233.262 220.45 232.79C220.986 232.305 217.217 231.931 211.794 231.931H202.188L201.489 226.681C200.899 222.239 195.741 194.504 194.934 191.431C194.79 190.881 195.037 189.124 195.483 187.527C196.015 185.621 195.693 182.079 194.546 177.212C193.585 173.135 193.028 169.569 193.309 169.288C193.591 169.007 196.808 170.361 200.459 172.299C214.3 179.644 224.139 177.95 226.029 167.895C227.064 162.389 225.125 152.119 220.873 140.588C218.004 132.806 217.938 132.283 219.433 129.148C220.295 127.341 221 124.969 221 123.877C221 121.133 203.705 102.331 198.949 99.9045C196.003 98.4015 193.069 97.9305 186.651 97.9305C179.944 97.9305 177.755 97.5535 175.94 96.0835L173.659 94.2355L176.344 89.4305C179.811 83.2285 179.107 82.4695 175.371 88.3825C173.792 90.8815 172.05 92.7775 171.5 92.5955C170.95 92.4125 170.5 89.1835 170.5 85.4195C170.5 78.7345 170.567 78.5565 173.357 77.8105C176.898 76.8635 179.346 74.6895 183.045 69.2085C186.885 63.5185 188.293 57.9945 188.277 48.6805C188.264 41.2245 188.352 40.9305 190.597 40.9305C194.137 40.9305 199.799 35.3915 201.065 30.6895C201.945 27.4195 201.847 25.8195 200.561 22.4515C198.054 15.8865 194.046 12.6815 187.683 12.1545C182.785 11.7475 182.01 11.9825 178.722 14.8695ZM189.942 15.8785C183.698 17.7735 181.445 20.1475 179.929 26.4305L179.205 29.4305L179.102 26.6145C178.894 20.8905 184.285 14.8805 189.5 15.0215C192.476 15.1015 192.479 15.1085 189.942 15.8785ZM186.388 28.4615C185.475 29.8535 184.529 30.7925 184.284 30.5475C183.591 29.8545 185.95 25.9305 187.058 25.9305C187.602 25.9305 187.3 27.0695 186.388 28.4615ZM135.149 40.0605C133.53 42.4645 131.631 46.4555 130.93 48.9305C130.094 51.8815 129.51 52.7905 129.234 51.5715C128.653 49.0145 131.666 41.4805 134.722 37.8485C138.346 33.5415 138.613 34.9215 135.149 40.0605ZM158.007 47.3175C160.141 49.2455 163.758 51.3265 166.044 51.9425C168.331 52.5585 169.977 53.2865 169.702 53.5615C168.896 54.3675 161.778 52.1265 158.241 49.9515C154.149 47.4375 150.985 42.3435 151.083 38.4305C151.154 35.5845 151.234 35.6455 152.643 39.6215C153.459 41.9265 155.873 45.3905 158.007 47.3175ZM167.917 44.6275C168.146 44.7945 167.858 44.9305 167.277 44.9305C166.697 44.9305 165.159 44.0035 163.861 42.8715L161.5 40.8115L164.5 42.5685C166.15 43.5345 167.688 44.4615 167.917 44.6275ZM153.683 61.5805C152.618 62.6455 152.881 65.9305 154.031 65.9305C155.51 65.9305 156.441 62.9715 155.316 61.8465C154.794 61.3245 154.059 61.2045 153.683 61.5805ZM139.166 64.0695C139.35 65.3675 139.95 66.3175 140.5 66.1805C141.976 65.8115 141.716 62.6695 140.166 62.1525C139.251 61.8475 138.937 62.4505 139.166 64.0695ZM174 67.9305C172.9 69.0305 172 70.4705 172 71.1305C172 72.0635 172.267 72.0635 173.2 71.1305C173.86 70.4705 175.421 69.9305 176.669 69.9305C178.374 69.9305 178.779 69.5175 178.299 68.2665C177.835 67.0585 178.023 66.8265 178.985 67.4205C179.866 67.9655 180.07 67.8535 179.595 67.0855C178.522 65.3475 176.238 65.6925 174 67.9305ZM144.443 68.3485C143.346 69.1505 142.888 70.1285 143.388 70.5985C143.875 71.0565 144.475 70.8685 144.72 70.1805C144.966 69.4935 146.592 68.9235 148.333 68.9155C150.746 68.9035 151.143 68.6685 150 67.9305C147.939 66.5985 146.709 66.6915 144.443 68.3485ZM157.617 70.7415C157.213 71.3955 157.149 71.9305 157.476 71.9305C157.803 71.9305 157.56 72.8845 156.935 74.0515C156.138 75.5415 156.127 75.9695 156.9 75.4925C159.313 74.0015 157.818 76.9215 155.25 78.7165C151.524 81.3215 147.66 82.1315 144.569 80.9565C140.716 79.4915 141.469 78.4025 146.25 78.5265C150.213 78.6285 150.247 78.6085 146.75 78.2255C141.261 77.6255 141.664 74.9415 147.25 74.8955C149.588 74.8755 152.625 74.1695 154 73.3255C155.665 72.3045 155.832 72.0225 154.5 72.4825C150.538 73.8495 143.253 74.1365 141.146 73.0085C139.966 72.3765 139 72.2775 139 72.7885C139 73.2985 139.667 73.9725 140.483 74.2855C141.543 74.6925 141.793 75.7135 141.362 77.8715C140.833 80.5165 141.112 81.0235 143.629 81.9905C149.318 84.1735 157.182 81.2125 159.102 76.1635C160.212 73.2435 158.94 68.6005 157.617 70.7415ZM100.327 91.6505C100.482 101.988 100.906 106.221 101.878 107.151C102.993 108.218 103.096 106.612 102.499 97.5025C101.277 78.8485 100.087 75.6425 100.327 91.6505ZM28 91.8565C28 94.4405 44.709 118.082 52.435 126.431C57.657 132.073 56.267 129.753 42.717 110.211C30.807 93.0345 28 89.5335 28 91.8565ZM67.511 98.2215C68.449 103.002 72.025 111.743 74.023 114.14C77.42 118.214 76.292 113.874 71.482 104.364C68.997 99.4505 67.21 96.6865 67.511 98.2215ZM175.405 98.0695L177.905 99.2085L174.805 103.82C169.365 111.913 164.053 116.876 159.226 118.375C157.357 118.955 158.249 117.11 164.226 108.036C168.227 101.961 171.816 96.9765 172.203 96.9605C172.59 96.9435 174.031 97.4425 175.405 98.0695ZM198.168 102.298C200.185 103.471 205.666 108.515 210.348 113.507L218.86 122.583L215.77 124.408C214.071 125.411 208.977 129.026 204.45 132.44L196.22 138.648L195.594 134.039C195.249 131.505 194.549 128.769 194.038 127.96C192.267 125.157 191.962 127.67 193.362 133.536C194.135 136.778 194.873 139.881 195.002 140.431C195.458 142.373 194.985 144.569 193.75 146.251C192.597 147.822 191.221 147.527 176 142.453C158.335 136.563 155.229 136.125 147.591 138.442C144.891 139.261 141.04 139.931 139.032 139.931C134.602 139.931 131.424 141.989 132.306 144.286C132.834 145.662 132.203 145.931 128.45 145.931C124.067 145.931 123.977 145.866 124.594 143.181C124.941 141.669 126.911 137.956 128.97 134.931C134.025 127.508 135.214 125.087 134.431 123.819C134.067 123.23 132.329 125.349 130.569 128.528C127.523 134.028 125 136.471 125 133.919C125 133.27 124.084 131.453 122.963 129.88C121.843 128.307 120.462 125.687 119.895 124.059C118.928 121.286 119.162 120.825 123.597 116.765C126.202 114.38 129.156 112.538 130.166 112.669C131.396 112.829 132 112.269 132 110.97C132 108.961 136.989 104.62 140.526 103.551C142.352 102.999 142.516 103.315 142.188 106.756C141.673 112.152 144.159 117.448 148.171 119.504C150.002 120.442 151.819 121.706 152.208 122.312C152.714 123.099 153.272 123.059 154.158 122.173C154.841 121.49 156.453 120.931 157.74 120.931C163.752 120.931 172.152 113.776 177.109 104.431C178.963 100.936 180.073 99.9495 182.474 99.6655C187.89 99.0235 194.422 100.119 198.168 102.298ZM182.5 124.8C175.728 130.219 173.43 132.695 174.334 133.599C174.885 134.149 190 121.358 190 120.341C190 119.217 187.966 120.426 182.5 124.8ZM223.973 162.099C224.007 169.282 223.456 170.644 219.739 172.566C213.331 175.88 202.133 172.105 179.671 159.059C174.815 156.239 169.979 153.931 168.924 153.931C167.869 153.931 165.317 155.441 163.253 157.287C159.585 160.567 155.873 162.931 154.391 162.931C153.011 162.931 158.485 157.725 161 156.646C163.326 155.649 163.357 155.548 161.446 155.209C160.012 154.954 157.719 156.516 153.848 160.387C150.558 163.678 147.43 165.931 146.152 165.931C143.252 165.931 143.43 165.138 147.25 161.038C150.204 157.867 150.022 157.939 145.25 161.833C142.363 164.189 140 166.525 140 167.024C140 167.523 139.325 167.931 138.5 167.931C136.3 167.931 136.65 166.303 139.859 161.611C143.987 155.577 146.226 150.931 145.006 150.931C144.431 150.931 142.059 152.131 139.736 153.598C137.413 155.064 134.966 156.264 134.3 156.264C133.633 156.264 133.283 156.579 133.52 156.964C133.758 157.349 133.119 158.418 132.1 159.341C130.676 160.629 130.133 160.718 129.755 159.724C128.435 156.256 135.369 148.761 143.701 144.652C146.011 143.513 147.671 142.208 147.391 141.754C146.598 140.471 151.646 138.931 156.645 138.931C159.127 138.931 163.936 140.034 167.329 141.381C170.723 142.729 180.739 146.282 189.586 149.277C198.433 152.272 207.589 155.701 209.933 156.897C215.584 159.78 216.259 158.793 211.01 155.319C207.971 153.308 205.908 150.713 203.418 145.769C201.538 142.036 200 138.756 200 138.482C200 138.208 203.262 135.691 207.25 132.891L214.5 127.798L219.223 142.115C222.57 152.259 223.955 158.083 223.973 162.099ZM123.532 133.992C124.903 136.644 124.89 137.169 123.397 139.448C122.263 141.179 121.927 143.096 122.327 145.559C122.855 148.812 122.336 149.89 116.793 157.04C113.429 161.38 110.412 164.931 110.088 164.931C109.538 164.931 105.101 159.654 103.782 157.431C103.412 156.809 105.136 156.495 108.344 156.602C111.18 156.695 112.488 156.552 111.25 156.282C108.379 155.657 108.398 155.447 112.097 147.274C113.8 143.51 116.265 138.036 117.574 135.108C120.106 129.446 121.086 129.262 123.532 133.992ZM24 133.776C24 134.241 24.804 135.349 25.787 136.238C27.893 138.144 36.967 142.298 37.613 141.651C38.084 141.181 25.85 132.931 24.68 132.931C24.306 132.931 24 133.311 24 133.776ZM68.043 142.954C69.094 143.517 70.461 144.924 71.081 146.083C72.131 148.045 71.997 148.158 69.103 147.733C66.936 147.415 65.497 147.83 64.343 149.104C61.848 151.862 60.669 151.334 61.381 147.776C62.459 142.387 64.382 140.995 68.043 142.954ZM140.233 144.057C137.605 145.74 136.679 145.91 135.494 144.926C133.239 143.055 134.681 141.929 139.309 141.948L143.5 141.965L140.233 144.057ZM202.665 150.6C202.081 151.183 195 149.062 195 148.304C195 148.044 195.717 146.445 196.593 144.75L198.187 141.669L200.691 145.869C202.069 148.179 202.957 150.308 202.665 150.6ZM133.959 148.681C133.937 149.093 132.587 150.989 130.959 152.893C127.816 156.571 127.081 160.641 129.401 161.531C130.172 161.827 132.917 160.454 135.503 158.481C143.786 152.158 144.583 152.177 140.268 158.594C135.58 165.568 134.919 167.182 136.021 168.965C136.692 170.05 137.374 170.082 139.475 169.124C140.916 168.468 143.085 167.928 144.297 167.925C145.509 167.921 147.789 167.246 149.364 166.425C150.94 165.603 153.275 164.931 154.553 164.931C155.832 164.931 158.955 163.133 161.494 160.936C168.581 154.803 169.737 154.792 178 160.787C178.275 160.986 175.585 163.801 172.021 167.04L165.543 172.931H136.271C120.172 172.931 107 172.677 107 172.368C107 172.059 111.279 166.435 116.509 159.869C125.803 148.201 126.108 147.931 130.009 147.931C132.204 147.931 133.982 148.269 133.959 148.681ZM100.703 157.181C104.507 161.718 107.907 165.912 108.257 166.499C108.607 167.086 107.831 168.712 106.534 170.111C104.246 172.578 103.674 172.674 87.837 173.29C53.574 174.622 46.43 174.504 44.497 172.571C42.097 170.171 26.997 151.587 27.276 151.377C27.399 151.285 34.588 150.929 43.25 150.587C58.341 149.991 59 150.045 59 151.889C59 154.97 60.789 155.233 63.476 152.546C66.274 149.748 68.612 149.348 83.642 149.099L93.785 148.931L100.703 157.181ZM148 152.69C148 153.989 152.023 156.035 153.176 155.322C153.851 154.905 153.356 154.139 151.885 153.324C149.135 151.8 148 151.614 148 152.69ZM185.398 164.873L190.54 167.815L191.813 175.902C192.513 180.35 193.301 184.552 193.565 185.239C193.828 185.926 193.472 187.231 192.772 188.138C191.771 189.437 188.857 189.938 179.092 190.497L166.683 191.207L167.291 182.596L167.899 173.984L173.637 167.958C176.793 164.643 179.574 161.931 179.816 161.931C180.058 161.931 182.57 163.255 185.398 164.873ZM104.765 205.025L105.029 234.618L77.897 235.324C62.974 235.711 50.615 235.879 50.433 235.697C50.137 235.401 49.201 220.796 47.324 187.203L46.696 175.975L66.098 175.664C76.769 175.492 89.775 175.37 95 175.392L104.5 175.431L104.765 205.025ZM166 177.667C166 179.171 165.324 187.609 164.497 196.417C163.67 205.224 162.657 216.931 162.247 222.431L161.5 232.431L155 233.078C151.425 233.433 139.275 233.856 128 234.017L107.5 234.311L106.882 218.871C106.543 210.379 106.205 197.018 106.132 189.181L106 174.931H136H166V177.667Z" fill="#070606"/>
<path d="M36.6804 39.676C36.5696 39.1129 36.6307 38.8027 36.8638 38.7454C37.1098 38.685 37.4118 38.7687 37.7698 38.9966C38.1278 39.2245 38.3354 39.455 38.3927 39.688C38.6534 40.7498 38.8555 42.2997 38.999 44.3376C39.1554 46.3723 39.1603 48.2933 39.0136 50.1004C38.88 51.9043 38.5671 52.8666 38.075 52.9875C37.9067 53.0288 37.6918 52.9923 37.4304 52.8781C37.1818 52.7606 36.9691 52.5932 36.7922 52.3758C36.1811 51.5647 34.3293 48.9715 31.2367 44.5961C31.217 46.1936 31.2014 48.0028 31.1897 50.0239C31.1878 52.0289 31.1727 53.3094 31.1445 53.8655C31.1163 54.4216 31.0439 54.714 30.9274 54.7426C30.7591 54.784 30.5169 54.6924 30.2009 54.4679C29.8947 54.2274 29.7035 53.9517 29.6271 53.6409C29.5508 53.3301 29.5249 51.4075 29.5494 47.873C29.5708 44.3256 29.4926 42.1344 29.315 41.2993C29.2133 40.8849 29.2725 40.6507 29.4926 40.5967C29.635 40.5617 29.8595 40.637 30.1659 40.8226C30.4821 40.9921 30.7334 41.205 30.9199 41.4612C34.3338 46.3618 36.4685 49.3524 37.3242 50.4328C37.6189 47.999 37.5288 45.1997 37.0537 42.035C36.8335 40.5789 36.709 39.7925 36.6804 39.676ZM46.994 44.1249C46.8859 43.6846 46.713 43.2877 46.4751 42.9342C46.2341 42.5678 45.9554 42.3273 45.639 42.2128C44.8059 42.6783 44.2056 43.5602 43.838 44.8587C43.4801 46.141 43.4236 47.2807 43.6684 48.2777C43.9133 49.2748 44.3119 49.8359 44.8644 49.9611C45.7522 49.5509 46.3862 48.7224 46.7666 47.4758C47.1567 46.213 47.2325 45.096 46.994 44.1249ZM41.9287 45.554C42.1339 44.4327 42.5196 43.4594 43.0857 42.6339C43.6616 41.7922 44.3316 41.2776 45.0955 41.09C45.8725 40.8993 46.601 41.0705 47.2811 41.6037C47.958 42.1239 48.4125 42.8567 48.6446 43.8019C48.8736 44.7342 48.8823 45.7481 48.6707 46.8435C48.456 47.9259 48.0267 48.8894 47.3829 49.734C46.7488 50.5624 45.985 51.0863 45.0916 51.3057C44.4312 51.4679 43.8062 51.2987 43.2165 50.7982C42.6268 50.2978 42.2175 49.5814 41.9885 48.6491C41.7564 47.7038 41.7365 46.6721 41.9287 45.554ZM59.0612 34.0155C59.0072 33.7954 58.9965 33.6401 59.0292 33.5497C59.0717 33.4432 59.1707 33.3708 59.326 33.3327C59.4944 33.2913 59.8222 33.3962 60.3094 33.6472C60.7967 33.8983 61.0866 34.1566 61.1793 34.4221C61.3456 34.8756 61.7951 35.6439 62.5279 36.7271C63.2575 37.7973 64.0566 38.871 64.9252 39.9483C65.4405 38.9156 66.0751 37.5585 66.8292 35.8768C67.5801 34.1822 68.1478 32.9718 68.5325 32.2458C68.9171 31.5198 69.226 31.1282 69.459 31.071C69.6921 31.0138 69.9699 31.0828 70.2925 31.2782C70.6151 31.4736 70.805 31.6878 70.8622 31.9209C70.9194 32.154 70.9587 32.4258 70.9801 32.7363C71.0014 33.0469 71.0077 33.464 70.9991 33.9879C71.0002 34.4956 70.9934 34.9435 70.9789 35.3315C70.9741 35.7033 70.9538 36.2918 70.9181 37.0969C70.8824 37.902 70.8619 38.5454 70.8567 39.0272C70.8483 39.4961 70.8458 40.0733 70.8494 40.7589C70.8499 41.4316 70.8491 41.9878 70.8473 42.4276C70.8552 42.8512 70.8551 43.27 70.8469 43.6839C70.8371 44.4826 70.7415 44.9042 70.5603 44.9488C70.3919 44.9901 70.1854 44.876 69.9408 44.6066C69.6961 44.3372 69.5102 43.9435 69.3831 43.4255C69.2527 42.8947 69.1771 41.6364 69.1563 39.6507C69.1485 37.6619 69.2302 35.8982 69.4016 34.3596C67.7504 37.9228 66.7179 40.0641 66.3042 40.7835C65.9034 41.4998 65.5218 41.9024 65.1592 41.9914C64.8096 42.0773 64.4301 41.9577 64.0208 41.6326C63.3893 41.0737 62.3702 39.6352 60.9635 37.3171C61.0772 38.7308 61.1173 39.9566 61.0839 40.9945C61.0602 42.0163 61.0428 42.7002 61.0316 43.0462C61.0303 43.376 61.0226 43.6525 61.0088 43.8756C61.0078 44.0955 61.0035 44.3574 60.9958 44.6613C60.9849 44.9523 60.9693 45.1964 60.949 45.3936C60.9418 45.5876 60.9328 45.8026 60.9221 46.0386C60.9082 46.2617 60.8913 46.4443 60.8713 46.5866C60.8642 46.7256 60.8491 46.8597 60.826 46.989C60.7764 47.2345 60.7257 47.3637 60.674 47.3764C60.5186 47.4146 60.283 47.2939 59.9673 47.0145C59.6515 46.7351 59.4555 46.44 59.3792 46.1292C59.3029 45.8184 59.2784 43.9298 59.3059 40.4632C59.3463 36.9935 59.2647 34.8442 59.0612 34.0155ZM78.9168 36.286C78.8087 35.8458 78.6357 35.4489 78.3979 35.0954C78.1569 34.729 77.8782 34.4885 77.5617 34.374C76.7287 34.8394 76.1284 35.7214 75.7607 37.0198C75.4029 38.3022 75.3464 39.4419 75.5912 40.4389C75.836 41.436 76.2347 41.9971 76.7871 42.1223C77.6749 41.7121 78.309 40.8836 78.6893 39.637C79.0794 38.3742 79.1553 37.2572 78.9168 36.286ZM73.8515 37.7152C74.0567 36.5939 74.4423 35.6205 75.0085 34.7951C75.5844 33.9534 76.2543 33.4388 77.0183 33.2512C77.7952 33.0604 78.5237 33.2317 79.2038 33.7649C79.8808 34.2851 80.3353 35.0179 80.5674 35.9631C80.7963 36.8954 80.805 37.9093 80.5935 39.0046C80.3787 40.0871 79.9495 41.0506 79.3056 41.8951C78.6715 42.7236 77.9078 43.2475 77.0143 43.4669C76.3539 43.6291 75.7289 43.4599 75.1392 42.9594C74.5495 42.4589 74.1402 41.7425 73.9113 40.8102C73.6792 39.865 73.6592 38.8333 73.8515 37.7152ZM82.7885 34.3468L82.3726 32.9044C82.2231 32.2958 82.2908 31.9565 82.5757 31.8866C82.8217 31.8262 83.0945 31.9308 83.3942 32.2004C83.7036 32.454 83.9123 32.8009 84.0204 33.2411C84.1253 33.6684 84.1919 33.9953 84.22 34.2218C84.9269 32.236 85.7853 31.119 86.7953 30.871C87.4297 30.7152 87.7851 30.7927 87.8615 31.1035C87.8996 31.2589 87.8634 31.4188 87.7527 31.5833C87.6421 31.7477 87.4521 31.9523 87.1826 32.1969C86.5695 32.6632 86.0997 33.266 85.7732 34.0052C85.4565 34.7282 85.2446 35.5148 85.1376 36.3648C85.0305 37.2149 84.9515 37.9276 84.9006 38.503C84.8626 39.0753 84.8349 39.5214 84.8174 39.8415C84.7999 40.1616 84.7678 40.4784 84.7213 40.7918C84.6413 41.3607 84.4653 41.6785 84.1934 41.7452C83.9733 41.7993 83.7618 41.7208 83.5589 41.5097C83.3658 41.2826 83.2407 41.0524 83.1834 40.8194C83.123 40.5733 83.1155 40.0672 83.1607 39.301C83.291 37.5391 83.1669 35.8877 82.7885 34.3468ZM96.0129 32.0056C96.1814 32.6919 95.9442 33.3474 95.3013 33.9721C94.6681 34.5806 93.8789 35.0009 92.9337 35.233C92.0014 35.462 91.1278 35.5667 90.3129 35.5471C90.2716 36.1613 90.3065 36.6951 90.4178 37.1483C90.5259 37.5885 90.7461 37.8983 91.0785 38.0775C91.4237 38.2536 91.9136 38.2637 92.5481 38.1079C93.1956 37.9489 93.8289 37.6767 94.4482 37.2913C95.0772 36.8897 95.4241 36.6809 95.4889 36.665C95.8255 36.5823 96.0257 36.6705 96.0893 36.9295C96.1751 37.2791 95.874 37.758 95.1858 38.3664C94.4945 38.9617 93.7734 39.3516 93.0224 39.536C92.0124 39.784 91.117 39.6881 90.3362 39.2483C89.5523 38.7955 89.0475 38.1094 88.8217 37.1901C88.596 36.2707 88.6067 35.2521 88.8539 34.1342C89.098 33.0034 89.5242 31.9995 90.1326 31.1224C90.741 30.2454 91.4272 29.713 92.1911 29.5254C92.9551 29.3379 93.7369 29.5303 94.5365 30.1028C95.349 30.6721 95.8412 31.3064 96.0129 32.0056ZM92.665 31.036C92.1859 31.1537 91.7494 31.5286 91.3555 32.1608C90.9584 32.78 90.6691 33.5032 90.4878 34.3303C91.0344 34.3196 91.6378 34.2332 92.2982 34.0711C92.9586 33.9089 93.5094 33.6638 93.9506 33.3358C94.3886 32.9949 94.5646 32.6496 94.4788 32.3C94.3929 31.9503 94.1436 31.634 93.7309 31.3509C93.3311 31.0647 92.9758 30.9597 92.665 31.036Z" fill="#070606"/>
<path d="M35.2513 63.2238C36.7663 62.8517 38.0601 63.1725 39.1328 64.1859C40.2054 65.1994 40.9659 66.619 41.4142 68.4447C41.8625 70.2705 41.8179 72.0457 41.2803 73.7703C40.7525 75.4788 39.8994 76.4777 38.7211 76.767C37.8924 76.9705 37.1694 76.6538 36.552 75.8169C35.9346 74.98 35.3562 73.7148 34.8167 72.0212C34.4605 72.9187 34.052 73.9389 33.5912 75.0818C32.7024 77.277 31.9861 78.4415 31.4423 78.575C31.2351 78.6259 30.9542 78.5164 30.5996 78.2465C30.245 77.9766 30.0057 77.5891 29.8817 77.0841C29.7545 76.5662 29.5367 74.9241 29.2281 72.1579C28.9163 69.3787 28.5761 67.2381 28.2072 65.7361C28.0896 65.257 28.1732 64.9824 28.4581 64.9125C28.7429 64.8425 29.1144 64.9298 29.5726 65.1742C30.0438 65.4155 30.3143 65.6786 30.3843 65.9635C30.451 66.2354 30.5663 67.6555 30.7302 70.2239C30.907 72.789 31.1154 74.7836 31.3552 76.2075C31.8175 74.6798 32.4025 73.2319 33.1099 71.8637C33.8272 70.4794 34.3994 69.7348 34.8267 69.6298C35.267 69.5217 35.8098 70.4181 36.455 72.3191C36.6978 73.0283 36.9846 73.665 37.3153 74.2291C37.659 74.79 37.9927 75.0307 38.3164 74.9512C39.0415 74.7731 39.5265 74.0362 39.7712 72.7405C40.0257 71.4286 39.9781 70.0605 39.6283 68.6361C39.2404 67.0564 38.5919 65.9251 37.6828 65.2422C37.209 64.878 36.7519 64.7499 36.3117 64.8581C35.8843 64.963 35.4787 64.9047 35.0948 64.6832C34.7239 64.4585 34.5114 64.2361 34.4573 64.016C34.3651 63.6404 34.6298 63.3764 35.2513 63.2238ZM47.5325 64.4916C48.1152 64.3485 48.7257 64.5144 49.364 64.9892C49.9992 65.4511 50.3756 65.9216 50.4932 66.4007C50.6077 66.8668 50.5635 67.3857 50.3606 67.9572C50.5636 68.1133 50.6827 68.2625 50.7176 68.405C50.8067 68.7675 50.8751 69.4097 50.923 70.3316C50.9838 71.2502 51.0282 71.8503 51.0561 72.1318C51.097 72.41 51.1252 72.6365 51.1406 72.8112C51.1529 72.973 51.1587 73.1363 51.158 73.3012C51.1857 73.6377 51.1089 73.8281 50.9276 73.8726C50.6945 73.9299 50.451 73.7769 50.197 73.4136C49.9529 73.0342 49.7383 72.524 49.5534 71.8829C48.7603 73.6291 47.8717 74.623 46.8876 74.8647C46.292 75.011 45.6408 74.9031 44.9341 74.5412C44.2372 74.1632 43.8219 73.7022 43.6884 73.1584C43.4976 72.3815 43.5472 71.3533 43.8371 70.0739C44.1239 68.7816 44.6108 67.5774 45.2978 66.4614C45.9848 65.3453 46.7297 64.6888 47.5325 64.4916ZM49.2654 67.6907C48.9697 66.4865 48.5823 65.9432 48.1032 66.0608C47.5982 66.1848 47.0981 66.692 46.6028 67.5825C46.1043 68.46 45.7333 69.4092 45.4897 70.4301C45.2462 71.451 45.1896 72.2269 45.3199 72.7577C45.374 72.9779 45.5091 73.1369 45.7254 73.2348C45.9385 73.3198 46.168 73.3321 46.414 73.2717C47.0226 73.1222 47.6088 72.5458 48.1724 71.5425C48.7329 70.5261 49.0174 69.3923 49.0258 68.1408C49.017 67.937 49.0984 67.7935 49.2702 67.7101L49.2654 67.6907ZM55.5346 70.682C55.595 70.928 55.7677 71.016 56.0525 70.9461C56.5446 70.8252 57.1068 70.543 57.7393 70.0994C58.3815 69.6396 58.7415 69.4002 58.8192 69.3812C59.0522 69.3239 59.199 69.4183 59.2594 69.6643C59.3516 70.0398 59.0697 70.569 58.4136 71.2518C57.7704 71.9315 57.1316 72.3492 56.4971 72.505C55.8756 72.6576 55.3163 72.6165 54.8193 72.3816C54.3191 72.1337 54.0245 71.8285 53.9354 71.4659C53.8464 71.1034 53.8112 70.6246 53.8299 70.0297C53.8454 69.4218 53.8827 68.6232 53.9418 67.6339C54.0107 66.6284 54.0545 65.8007 54.0734 65.1508C53.4998 65.4427 53.1094 65.6141 52.9023 65.6649C52.6951 65.7158 52.4625 65.6631 52.2044 65.5068C51.9561 65.3344 51.8081 65.151 51.7604 64.9568C51.6841 64.646 52.4527 64.1415 54.066 63.4433C54.0352 62.3114 53.918 61.331 53.7145 60.5023C53.6192 60.1138 53.7009 59.8878 53.9599 59.8242C54.18 59.7702 54.4869 59.8458 54.8806 60.0512C55.2711 60.2436 55.5093 60.5147 55.5951 60.8643C55.681 61.2139 55.7219 61.856 55.718 62.7905C56.4402 62.5446 57.0214 62.3675 57.4617 62.2594C58.2386 62.0686 58.6684 62.1416 58.7511 62.4782C58.7987 62.6725 58.6248 62.8868 58.2293 63.1212C57.8468 63.3524 57.0155 63.7694 55.7357 64.372C55.7149 65.4617 55.6595 66.7178 55.5695 68.1403C55.4763 69.5499 55.4647 70.3971 55.5346 70.682ZM64.4745 70.5461C63.7235 70.7305 62.9462 70.6125 62.1428 70.192C61.3361 69.7585 60.8342 69.1403 60.6371 68.3375C60.4368 67.5217 60.4782 66.5162 60.7613 65.3209C61.0444 64.1255 61.5211 63.0474 62.1913 62.0865C62.8744 61.1225 63.6239 60.5403 64.4396 60.34C64.9705 60.2096 65.4955 60.3347 66.0146 60.7152C66.5336 61.0958 66.8377 61.4673 66.9267 61.8299C66.9521 61.9335 66.942 62.0321 66.8963 62.1257C66.8475 62.2063 66.7583 62.2625 66.6288 62.2943C66.5123 62.3229 66.27 62.2588 65.902 62.1021C65.534 61.9453 65.227 61.8971 64.981 61.9576C64.2818 62.1293 63.617 62.9446 62.9868 64.4037C62.3566 65.8627 62.1543 67.0519 62.3801 67.9713C62.4786 68.3727 62.6795 68.6597 62.9828 68.8324C63.299 69.0019 63.7355 69.0183 64.2923 68.8816C64.862 68.7416 65.3641 68.5497 65.7984 68.3058C66.2426 68.0457 66.5782 67.8191 66.8054 67.626C67.0294 67.42 67.2126 67.2995 67.355 67.2645C67.6011 67.2041 67.7543 67.2969 67.8147 67.5429C67.9069 67.9185 67.5618 68.47 66.7794 69.1976C66.0068 69.909 65.2385 70.3585 64.4745 70.5461ZM68.7736 54.3126C68.6496 53.8076 68.7429 53.5169 69.0537 53.4406C69.2997 53.3802 69.6064 53.5108 69.9737 53.8325C70.354 54.151 70.5886 54.4916 70.6776 54.8541C70.8843 55.6958 71.0236 57.1856 71.0955 59.3234C71.1772 61.4452 71.1293 63.5987 70.952 65.784C71.6714 63.1224 72.3376 61.1671 72.9508 59.9181C73.5738 58.6531 74.196 57.9442 74.8176 57.7916C75.1542 57.709 75.6142 57.9049 76.1976 58.3795C76.7939 58.8509 77.1636 59.3779 77.3066 59.9606C77.4497 60.5433 77.5025 61.4571 77.4649 62.702C77.3807 65.8255 76.9825 67.4747 76.2703 67.6496C75.9855 67.7195 75.7953 67.5603 75.6999 67.1718C75.6046 66.7834 75.5994 66.0913 75.6844 65.0956C75.8778 62.9201 75.8887 61.4827 75.717 60.7835C75.6598 60.5504 75.5538 60.3705 75.3991 60.2437C75.2444 60.1169 75.0829 60.0742 74.9146 60.1155C74.7462 60.1569 74.5613 60.2984 74.3598 60.5401C74.1583 60.7818 73.9384 61.1722 73.7 61.7112C73.4029 62.402 73.1038 63.1688 72.8027 64.0116C72.5146 64.8511 72.3379 65.3614 72.2724 65.5422C72.2168 65.7069 72.1136 66.0137 71.963 66.4625C71.8253 66.9082 71.722 67.2425 71.6532 67.4653C71.5812 67.6752 71.488 67.9109 71.3737 68.1724C71.1808 68.6728 71.0067 68.9421 70.8513 68.9803C70.6959 69.0184 70.4538 68.9269 70.1249 68.7056C69.7928 68.4714 69.6029 68.2571 69.5552 68.0629C69.5043 67.8557 69.4817 67.4562 69.4874 66.8645C69.5244 64.2193 69.5141 62.4164 69.4567 61.4558C69.3033 57.9238 69.0756 55.5427 68.7736 54.3126ZM86.5859 58.3205C86.7544 59.0068 86.5172 59.6622 85.8743 60.2869C85.2411 60.8955 84.4519 61.3158 83.5067 61.5479C82.5744 61.7768 81.7008 61.8815 80.886 61.8619C80.8446 62.4762 80.8795 63.0099 80.9908 63.4631C81.0989 63.9034 81.3192 64.2131 81.6515 64.3924C81.9968 64.5684 82.4867 64.5786 83.1211 64.4228C83.7686 64.2638 84.4019 63.9916 85.0212 63.6061C85.6502 63.2045 85.9971 62.9958 86.0619 62.9799C86.3986 62.8972 86.5987 62.9853 86.6623 63.2443C86.7481 63.5939 86.447 64.0729 85.7589 64.6812C85.0676 65.2766 84.3464 65.6665 83.5954 65.8509C82.5854 66.0989 81.69 66.003 80.9093 65.5631C80.1253 65.1104 79.6205 64.4243 79.3948 63.5049C79.169 62.5856 79.1797 61.567 79.427 60.4491C79.671 59.3183 80.0972 58.3143 80.7056 57.4373C81.314 56.5602 82.0002 56.0279 82.7642 55.8403C83.5281 55.6527 84.3099 55.8452 85.1095 56.4177C85.9221 56.987 86.4142 57.6213 86.5859 58.3205ZM83.2381 57.3509C82.759 57.4685 82.3224 57.8434 81.9285 58.4756C81.5314 59.0948 81.2422 59.818 81.0608 60.6451C81.6074 60.6345 82.2109 60.5481 82.8713 60.3859C83.5316 60.2237 84.0824 59.9787 84.5236 59.6507C84.9616 59.3097 85.1377 58.9644 85.0518 58.6148C84.966 58.2652 84.7167 57.9488 84.3039 57.6658C83.9041 57.3795 83.5488 57.2746 83.2381 57.3509ZM92.3435 53.488C92.7837 53.3799 93.2585 53.5242 93.7678 53.9209C94.2739 54.3046 94.5715 54.6777 94.6605 55.0403C94.7146 55.2604 94.638 55.3959 94.4308 55.4468C94.2884 55.4818 94.0412 55.4257 93.6894 55.2788C93.3343 55.1188 93.0014 55.077 92.6906 55.1533C92.3799 55.2296 91.9323 55.5317 91.348 56.0596C90.7767 56.5843 90.5403 57.0474 90.6388 57.4488C90.712 57.7466 91.4332 58.1118 92.8025 58.5444C93.3257 58.718 93.8242 58.9869 94.2981 59.3511C94.7817 59.6991 95.0871 60.1321 95.2143 60.6501C95.3383 61.1551 95.1046 61.741 94.5132 62.408C93.9317 63.0588 93.1682 63.5002 92.223 63.7323C91.2907 63.9613 90.4063 63.9382 89.5699 63.663C88.7464 63.3847 88.2854 63.0448 88.1869 62.6434C88.1455 62.4751 88.1526 62.3361 88.208 62.2263C88.2732 62.1005 88.3706 62.0217 88.5001 61.9899C88.6295 61.9581 88.8315 61.9977 89.1059 62.1088C89.9291 62.4421 90.7163 62.5166 91.4673 62.3321C92.2313 62.1445 92.7609 61.9252 93.0562 61.6742C93.3484 61.4103 93.4595 61.1359 93.3895 60.851C93.3164 60.5532 93.0523 60.2885 92.5973 60.057C92.1392 59.8126 91.6517 59.6165 91.1349 59.4688C90.631 59.3179 90.1452 59.1009 89.6775 58.8176C89.2098 58.5343 88.9282 58.1984 88.8329 57.8099C88.6643 57.1236 89.0268 56.2795 89.9203 55.2775C90.8236 54.2594 91.6313 53.6629 92.3435 53.488ZM97.9626 60.1194C98.116 59.7934 98.3027 59.6034 98.5228 59.5493C98.743 59.4953 99.0863 59.7473 99.5529 60.3055C100.016 60.8507 100.286 61.2787 100.362 61.5895C100.385 61.6801 100.345 61.7996 100.245 61.9479C100.144 62.0963 100.035 62.1848 99.9184 62.2134C99.5947 62.2929 99.1828 62.1812 98.6829 61.8783C98.1797 61.5626 97.8963 61.2752 97.8327 61.0162C97.766 60.7443 97.8093 60.4453 97.9626 60.1194ZM97.1868 46.1411C97.4328 46.0807 97.8077 46.1534 98.3113 46.3592C98.8149 46.5651 99.089 46.7586 99.1335 46.9399C99.4037 48.0405 99.5942 50.0463 99.7049 52.9572C99.8286 55.865 99.7221 57.3602 99.3854 57.4428C99.1782 57.4937 98.9585 57.4378 98.7264 57.2752C98.4911 57.0995 98.3448 56.8952 98.2875 56.6621C98.2555 56.5876 98.2187 56.1024 98.1772 55.2064C98.1486 54.3073 98.0423 53.0635 97.8581 51.4749C97.6708 49.8733 97.3848 48.2892 97.0001 46.7224C96.9174 46.3857 96.9796 46.192 97.1868 46.1411Z" fill="#070606"/>
<rect x="138" y="72.103" width="21.5809" height="12.2958" transform="rotate(-8.49575 138 72.103)" fill="white"/>
<g clip-path="url(#clip1_1630_8342)">
<path fill-rule="evenodd" clip-rule="evenodd" d="M121.278 139.13C125.103 135.772 127.542 130.251 126.672 126.924C126.262 125.354 126.515 125.053 127.821 125.554C135.281 128.417 145.497 128.415 151.039 125.549C152.708 124.686 155.68 124.392 159.552 124.709C164.369 125.103 166.112 124.809 168.72 123.165C176.833 118.05 180.637 107.589 177.499 99.0245C174.617 91.1555 174.617 91.1575 177.136 90.0525C179.212 89.1425 179.084 89.0815 176.084 89.5515C171.42 90.2815 166.583 94.1985 161.23 101.58L156.733 107.78L153.337 104.021C149.22 99.4635 143.019 96.4065 136.005 95.4755L130.775 94.7825L131.278 91.0345C131.554 88.9725 132.959 85.5515 134.4 83.4315C135.841 81.3105 136.59 79.4325 136.065 79.2575C134.136 78.6145 130.995 81.2225 128.433 85.5935C124.603 92.1295 119 93.0635 119 87.1655C119 83.9425 121.463 81.4075 127.35 78.5695L131.5 76.5695L131.802 70.1525C131.968 66.6225 131.578 62.4665 130.936 60.9155C129.833 58.2515 130.226 57.4575 138.034 46.5825C142.58 40.2505 146.39 35.0695 146.5 35.0695C148.827 35.0695 153.406 37.9545 154.53 40.1285C157.046 44.9935 156.429 48.3055 152.585 50.5695C147.117 53.7905 136.412 68.8155 138.265 70.6685C138.619 71.0215 140.817 69.9065 143.151 68.1895C150.052 63.1145 156.474 64.5805 162.617 72.6345C165.066 75.8455 165.551 77.5765 166.075 84.9695L166.683 93.5695L166.842 85.3665C167.007 76.7985 166.177 73.7475 162.222 68.3935C159.209 64.3145 155.403 61.8365 151 61.0865C148.238 60.6165 147.565 60.0785 147.807 58.5305C148.26 55.6335 151.788 53.0725 155.361 53.0475C157.087 53.0355 160.351 52.1855 162.613 51.1575L166.726 49.2905L165.378 56.3615C164.637 60.2515 164.181 63.5835 164.365 63.7675C164.726 64.1295 169.008 50.1685 169.003 48.6455C169.001 48.1365 172.132 44.4905 175.96 40.5425C182.83 33.4575 182.907 33.3185 181.925 29.7595C181.018 26.4755 181.438 25.0095 186.625 13.3615C189.758 6.3255 192.665 0.176496 193.085 -0.304504C194.326 -1.7255 199.854 0.743493 202.518 3.90849L204.976 6.83049L215.738 6.3335C226.216 5.8505 226.526 5.89748 227.5 8.12448C228.05 9.38348 229.724 11.3135 231.221 12.4145C234.743 15.0065 238.511 13.5705 239.454 9.27849C240.084 6.41049 240.242 6.34749 248.298 5.72049C252.809 5.36849 260.888 5.07849 266.25 5.07549C271.612 5.07249 276 4.81549 276 4.50549C276 4.19449 271.307 -1.91651 265.571 -9.07651C253.544 -24.0865 254.877 -19.2075 253.042 -54.9305C251.532 -84.3355 251.29 -81.9115 255.75 -82.0305C257.812 -82.0855 260.625 -82.4905 262 -82.9305C265.461 -84.0395 248.936 -84.0465 212 -82.9535C195.225 -82.4575 158.775 -81.5105 131 -80.8495C103.225 -80.1895 80.072 -79.2615 79.55 -78.7895C79.014 -78.3045 82.783 -77.9305 88.206 -77.9305H97.812L98.511 -72.6805C99.101 -68.2385 104.259 -40.5035 105.066 -37.4305C105.21 -36.8805 104.963 -35.1245 104.517 -33.5275C103.985 -31.6215 104.307 -28.0785 105.454 -23.2115C106.415 -19.1345 106.972 -15.5685 106.691 -15.2875C106.409 -15.0065 103.192 -16.3615 99.541 -18.2995C85.7 -25.6445 75.861 -23.9495 73.971 -13.8945C72.936 -8.38852 74.875 1.88149 79.127 13.4125C81.996 21.1945 82.062 21.7175 80.567 24.8525C79.705 26.6595 79 29.0315 79 30.1235C79 32.8675 96.295 51.6695 101.051 54.0955C103.997 55.5985 106.931 56.0695 113.349 56.0695C120.056 56.0695 122.245 56.4465 124.06 57.9165L126.341 59.7645L123.656 64.5695C120.189 70.7715 120.893 71.5305 124.629 65.6175C126.208 63.1185 127.95 61.2225 128.5 61.4045C129.05 61.5875 129.5 64.8165 129.5 68.5805C129.5 75.2655 129.433 75.4435 126.643 76.1895C123.102 77.1365 120.654 79.3105 116.955 84.7915C113.115 90.4815 111.707 96.0055 111.723 105.319C111.736 112.775 111.648 113.069 109.403 113.069C105.863 113.069 100.201 118.608 98.935 123.31C98.055 126.58 98.153 128.18 99.439 131.548C101.946 138.113 105.954 141.318 112.317 141.845C117.215 142.252 117.99 142.017 121.278 139.13ZM110.058 138.121C116.302 136.226 118.555 133.852 120.071 127.569L120.795 124.569L120.898 127.385C121.106 133.109 115.715 139.119 110.5 138.978C107.524 138.898 107.521 138.891 110.058 138.121ZM113.612 125.538C114.525 124.146 115.471 123.207 115.716 123.452C116.409 124.145 114.05 128.069 112.942 128.069C112.398 128.069 112.7 126.93 113.612 125.538ZM164.851 113.939C166.47 111.535 168.369 107.544 169.07 105.069C169.906 102.118 170.49 101.209 170.766 102.428C171.347 104.985 168.334 112.519 165.278 116.151C161.654 120.458 161.387 119.078 164.851 113.939ZM141.993 106.682C139.859 104.754 136.242 102.673 133.956 102.057C131.669 101.441 130.023 100.713 130.298 100.438C131.104 99.6325 138.222 101.873 141.759 104.048C145.851 106.562 149.015 111.656 148.917 115.569C148.846 118.415 148.766 118.354 147.357 114.378C146.541 112.073 144.127 108.609 141.993 106.682ZM132.083 109.372C131.854 109.205 132.142 109.069 132.723 109.069C133.303 109.069 134.841 109.996 136.139 111.128L138.5 113.188L135.5 111.431C133.85 110.465 132.312 109.538 132.083 109.372ZM146.317 92.4195C147.382 91.3545 147.119 88.0695 145.969 88.0695C144.49 88.0695 143.559 91.0285 144.684 92.1535C145.206 92.6755 145.941 92.7955 146.317 92.4195ZM160.834 89.9305C160.65 88.6325 160.05 87.6825 159.5 87.8195C158.024 88.1885 158.284 91.3305 159.834 91.8475C160.749 92.1525 161.063 91.5495 160.834 89.9305ZM126 86.0695C127.1 84.9695 128 83.5295 128 82.8695C128 81.9365 127.733 81.9365 126.8 82.8695C126.14 83.5295 124.579 84.0695 123.331 84.0695C121.626 84.0695 121.221 84.4825 121.701 85.7335C122.165 86.9415 121.977 87.1735 121.015 86.5795C120.134 86.0345 119.93 86.1465 120.405 86.9145C121.478 88.6525 123.762 88.3075 126 86.0695ZM155.557 85.6515C156.654 84.8495 157.112 83.8715 156.612 83.4015C156.125 82.9435 155.525 83.1315 155.28 83.8195C155.034 84.5065 153.408 85.0765 151.667 85.0845C149.254 85.0965 148.857 85.3315 150 86.0695C152.061 87.4015 153.291 87.3085 155.557 85.6515ZM142.383 83.2585C142.787 82.6045 142.851 82.0695 142.524 82.0695C142.197 82.0695 142.44 81.1155 143.065 79.9485C143.862 78.4585 143.873 78.0305 143.1 78.5075C140.687 79.9985 142.182 77.0785 144.75 75.2835C148.476 72.6785 152.34 71.8685 155.431 73.0435C159.284 74.5085 158.531 75.5975 153.75 75.4735C149.787 75.3715 149.753 75.3915 153.25 75.7745C158.739 76.3745 158.336 79.0585 152.75 79.1045C150.412 79.1245 147.375 79.8305 146 80.6745C144.335 81.6955 144.168 81.9775 145.5 81.5175C149.462 80.1505 156.747 79.8635 158.854 80.9915C160.034 81.6235 161 81.7225 161 81.2115C161 80.7015 160.333 80.0275 159.517 79.7145C158.457 79.3075 158.207 78.2865 158.638 76.1285C159.167 73.4835 158.888 72.9765 156.371 72.0095C150.682 69.8265 142.818 72.7875 140.898 77.8365C139.788 80.7565 141.06 85.3995 142.383 83.2585ZM199.673 62.3495C199.518 52.0125 199.094 47.7795 198.122 46.8495C197.007 45.7825 196.904 47.3885 197.501 56.4975C198.723 75.1515 199.913 78.3575 199.673 62.3495ZM272 62.1435C272 59.5595 255.291 35.9185 247.565 27.5695C242.343 21.9275 243.733 24.2475 257.283 43.7895C269.193 60.9655 272 64.4665 272 62.1435ZM232.489 55.7785C231.551 50.9985 227.975 42.2575 225.977 39.8605C222.58 35.7865 223.708 40.1265 228.518 49.6365C231.003 54.5495 232.79 57.3135 232.489 55.7785ZM124.595 55.9305L122.095 54.7915L125.195 50.1805C130.635 42.0875 135.947 37.1245 140.774 35.6255C142.643 35.0455 141.751 36.8905 135.774 45.9645C131.773 52.0395 128.184 57.0235 127.797 57.0395C127.41 57.0565 125.969 56.5575 124.595 55.9305ZM101.832 51.7025C99.815 50.5295 94.334 45.4855 89.652 40.4935L81.14 31.4175L84.23 29.5925C85.929 28.5895 91.023 24.9745 95.55 21.5605L103.78 15.3525L104.406 19.9615C104.751 22.4955 105.451 25.2315 105.962 26.0405C107.733 28.8435 108.038 26.3305 106.638 20.4645C105.865 17.2225 105.127 14.1195 104.998 13.5695C104.542 11.6275 105.015 9.43148 106.25 7.74948C107.403 6.17848 108.779 6.47349 124 11.5475C141.665 17.4375 144.771 17.8755 152.409 15.5585C155.109 14.7395 158.96 14.0695 160.968 14.0695C165.398 14.0695 168.576 12.0115 167.694 9.71449C167.166 8.33849 167.797 8.06949 171.55 8.06949C175.933 8.06949 176.023 8.13449 175.406 10.8195C175.059 12.3315 173.089 16.0445 171.03 19.0695C165.975 26.4925 164.786 28.9135 165.569 30.1815C165.933 30.7705 167.671 28.6515 169.431 25.4725C172.477 19.9725 175 17.5295 175 20.0815C175 20.7305 175.916 22.5475 177.037 24.1205C178.157 25.6935 179.538 28.3135 180.105 29.9415C181.072 32.7145 180.838 33.1755 176.403 37.2355C173.798 39.6205 170.844 41.4625 169.834 41.3315C168.604 41.1715 168 41.7315 168 43.0305C168 45.0395 163.011 49.3805 159.474 50.4495C157.648 51.0015 157.484 50.6855 157.812 47.2445C158.327 41.8485 155.841 36.5525 151.829 34.4965C149.998 33.5585 148.181 32.2945 147.792 31.6885C147.286 30.9015 146.728 30.9415 145.842 31.8275C145.159 32.5105 143.547 33.0695 142.26 33.0695C136.248 33.0695 127.848 40.2245 122.891 49.5695C121.037 53.0645 119.927 54.0505 117.526 54.3345C112.11 54.9765 105.578 53.8815 101.832 51.7025ZM117.5 29.2005C124.272 23.7815 126.57 21.3055 125.666 20.4015C125.115 19.8515 110 32.6425 110 33.6595C110 34.7835 112.034 33.5745 117.5 29.2005ZM76.027 -8.09851C75.993 -15.2815 76.544 -16.6435 80.261 -18.5655C86.669 -21.8795 97.867 -18.1045 120.329 -5.05852C125.185 -2.23852 130.021 0.0694885 131.076 0.0694885C132.131 0.0694885 134.683 -1.44051 136.747 -3.28651C140.415 -6.56651 144.127 -8.93051 145.609 -8.93051C146.989 -8.93051 141.515 -3.72451 139 -2.64551C136.674 -1.64851 136.643 -1.54751 138.554 -1.20851C139.988 -0.953511 142.281 -2.51551 146.152 -6.38651C149.442 -9.67751 152.57 -11.9305 153.848 -11.9305C156.748 -11.9305 156.57 -11.1375 152.75 -7.03751C149.796 -3.86651 149.978 -3.9385 154.75 -7.8325C157.637 -10.1885 160 -12.5245 160 -13.0235C160 -13.5225 160.675 -13.9305 161.5 -13.9305C163.7 -13.9305 163.35 -12.3025 160.141 -7.6105C156.013 -1.5765 153.774 3.06949 154.994 3.06949C155.569 3.06949 157.941 1.86948 160.264 0.402481C162.587 -1.06352 165.034 -2.2635 165.7 -2.2635C166.367 -2.2635 166.717 -2.57852 166.48 -2.96352C166.242 -3.34852 166.881 -4.41752 167.9 -5.34052C169.324 -6.62852 169.867 -6.71751 170.245 -5.72351C171.565 -2.25551 164.631 5.2395 156.299 9.3485C153.989 10.4875 152.329 11.7925 152.609 12.2465C153.402 13.5295 148.354 15.0695 143.355 15.0695C140.873 15.0695 136.064 13.9665 132.671 12.6195C129.277 11.2715 119.261 7.7185 110.414 4.7235C101.567 1.7285 92.411 -1.70051 90.067 -2.89651C84.416 -5.77951 83.741 -4.79251 88.99 -1.31851C92.029 0.692488 94.092 3.28749 96.582 8.23149C98.462 11.9645 100 15.2445 100 15.5185C100 15.7925 96.738 18.3095 92.75 21.1095L85.5 26.2025L80.777 11.8855C77.43 1.74148 76.045 -4.08251 76.027 -8.09851ZM176.468 20.0085C175.097 17.3565 175.11 16.8315 176.603 14.5525C177.737 12.8215 178.073 10.9045 177.673 8.44148C177.145 5.18848 177.664 4.1105 183.207 -3.03951C186.571 -7.37951 189.588 -10.9305 189.912 -10.9305C190.462 -10.9305 194.899 -5.65351 196.218 -3.43051C196.588 -2.80851 194.864 -2.49452 191.656 -2.60152C188.82 -2.69452 187.512 -2.55151 188.75 -2.28151C191.621 -1.65651 191.602 -1.44651 187.903 6.72649C186.2 10.4905 183.735 15.9645 182.426 18.8925C179.894 24.5545 178.914 24.7385 176.468 20.0085ZM276 20.2245C276 19.7595 275.196 18.6515 274.213 17.7625C272.107 15.8565 263.033 11.7025 262.387 12.3495C261.916 12.8195 274.15 21.0695 275.32 21.0695C275.694 21.0695 276 20.6895 276 20.2245ZM231.957 11.0465C230.906 10.4835 229.539 9.0765 228.919 7.9175C227.869 5.9555 228.003 5.84249 230.897 6.26749C233.064 6.58549 234.503 6.17048 235.657 4.89648C238.152 2.13848 239.331 2.66649 238.619 6.22449C237.541 11.6135 235.618 13.0055 231.957 11.0465ZM159.767 9.94348C162.395 8.26048 163.321 8.09049 164.506 9.07449C166.761 10.9455 165.319 12.0715 160.691 12.0525L156.5 12.0355L159.767 9.94348ZM97.335 3.40048C97.919 2.81748 105 4.93849 105 5.69649C105 5.95649 104.283 7.55549 103.407 9.25049L101.813 12.3315L99.309 8.13148C97.931 5.82149 97.043 3.69248 97.335 3.40048ZM166.041 5.31949C166.063 4.90749 167.413 3.01148 169.041 1.10748C172.184 -2.57052 172.919 -6.64052 170.599 -7.53052C169.828 -7.82652 167.083 -6.45351 164.497 -4.48051C156.214 1.84249 155.417 1.82349 159.732 -4.59351C164.42 -11.5675 165.081 -13.1815 163.979 -14.9645C163.308 -16.0495 162.626 -16.0815 160.525 -15.1235C159.084 -14.4675 156.915 -13.9275 155.703 -13.9245C154.491 -13.9205 152.211 -13.2455 150.636 -12.4245C149.06 -11.6025 146.725 -10.9305 145.447 -10.9305C144.168 -10.9305 141.045 -9.13252 138.506 -6.93552C131.419 -0.802516 130.263 -0.791514 122 -6.78651C121.725 -6.98551 124.415 -9.8005 127.979 -13.0395L134.457 -18.9305L163.729 -18.9305C179.828 -18.9305 193 -18.6775 193 -18.3685C193 -18.0595 188.721 -12.4345 183.491 -5.86852C174.197 5.79949 173.892 6.06949 169.991 6.06949C167.796 6.06949 166.018 5.73149 166.041 5.31949ZM199.297 -3.18051C195.493 -7.71751 192.093 -11.9115 191.743 -12.4985C191.393 -13.0855 192.169 -14.7115 193.466 -16.1105C195.754 -18.5775 196.326 -18.6745 212.163 -19.2905C246.426 -20.6225 253.57 -20.5035 255.503 -18.5705C257.903 -16.1705 273.003 2.41349 272.724 2.62349C272.601 2.71549 265.412 3.07148 256.75 3.41348C241.659 4.00948 241 3.9555 241 2.1115C241 -0.969504 239.211 -1.23252 236.524 1.45448C233.726 4.25248 231.388 4.65249 216.358 4.90149L206.215 5.06949L199.297 -3.18051ZM152 1.31049C152 0.0114858 147.977 -2.03452 146.824 -1.32152C146.149 -0.904518 146.644 -0.138517 148.115 0.676483C150.865 2.20048 152 2.38649 152 1.31049ZM114.602 -10.8725L109.46 -13.8145L108.187 -21.9015C107.487 -26.3495 106.699 -30.5515 106.435 -31.2385C106.172 -31.9255 106.528 -33.2305 107.228 -34.1375C108.229 -35.4365 111.143 -35.9385 120.908 -36.4975L133.317 -37.2065L132.709 -28.5955L132.101 -19.9845L126.363 -13.9575C123.207 -10.6425 120.426 -7.93051 120.184 -7.93051C119.942 -7.93051 117.43 -9.25451 114.602 -10.8725ZM195.235 -51.0245L194.971 -80.6185L222.103 -81.3235C237.026 -81.7105 249.385 -81.8785 249.567 -81.6965C249.863 -81.4005 250.799 -66.7955 252.676 -33.2025L253.304 -21.9745L233.902 -21.6635C223.231 -21.4915 210.225 -21.3695 205 -21.3915L195.5 -21.4305L195.235 -51.0245ZM134 -23.6665C134 -25.1705 134.676 -33.6085 135.503 -42.4165C136.33 -51.2235 137.343 -62.9305 137.753 -68.4305L138.5 -78.4305L145 -79.0775C148.575 -79.4325 160.725 -79.8555 172 -80.0165L192.5 -80.3105L193.118 -64.8705C193.457 -56.3785 193.795 -43.0175 193.868 -35.1805L194 -20.9305H164L134 -20.9305V-23.6665Z" fill="#070606"/>
</g>
</g>
<defs>
<clipPath id="clip0_1630_8342">
<rect width="250" height="250" fill="white"/>
</clipPath>
<clipPath id="clip1_1630_8342">
<rect width="22" height="14" fill="white" transform="matrix(-1 0 0 -1 161 85)"/>
</clipPath>
</defs>
</svg>
